<?xml version="1.0" encoding="utf-8"?>
<svg viewBox="0 0 384 512" width="384" height="512" xmlns="http://www.w3.org/2000/svg">
  <path d="M224 128L224 0H48C21.49 0 0 21.49 0 48v416C0 490.5 21.49 512 48 512h288c26.51 0 48-21.49 48-48V160h-127.1C238.3 160 224 145.7 224 128zM154.1 353.8c7.812 7.812 7.812 20.5 0 28.31C150.2 386.1 145.1 388 140 388s-10.23-1.938-14.14-5.844l-48-48c-7.812-7.812-7.812-20.5 0-28.31l48-48c7.812-7.812 20.47-7.812 28.28 0s7.812 20.5 0 28.31L120.3 320L154.1 353.8zM306.1 305.8c7.812 7.812 7.812 20.5 0 28.31l-48 48C254.2 386.1 249.1 388 244 388s-10.23-1.938-14.14-5.844c-7.812-7.812-7.812-20.5 0-28.31L263.7 320l-33.86-33.84c-7.812-7.812-7.812-20.5 0-28.31s20.47-7.812 28.28 0L306.1 305.8zM256 0v128h128L256 0z" style="fill: rgb(129, 161, 193);"/>
  <path d="M 256.9 159.5 L 384.5 159.5 L 384.5 464 C 384.478 477.357 379.044 489.546 370.295 498.295 C 361.546 507.044 349.357 512.478 336 512.5 L 48 512.5 C 34.643 512.478 22.454 507.042 13.705 498.291 C 4.956 489.541 -0.478 477.352 -0.5 464 L -0.5 48 C -0.478 34.643 4.956 22.454 13.705 13.705 C 22.454 4.956 34.643 -0.478 48 -0.5 L 224.5 -0.5 L 224.5 128 C 224.478 136.748 227.99 144.557 233.825 150.281 C 239.661 156.005 247.7 159.521 256.9 159.5 Z M 233.125 150.994 C 227.16 145.143 223.522 136.952 223.5 128 L 223.5 0.5 L 48 0.5 C 34.847 0.478 23.036 5.789 14.412 14.412 C 5.789 23.036 0.478 34.847 0.5 48 L 0.5 464 C 0.478 477.148 5.789 488.959 14.412 497.584 C 23.036 506.208 34.847 511.522 48 511.5 L 336 511.5 C 349.153 511.522 360.964 506.211 369.588 497.588 C 378.211 488.964 383.522 477.153 383.5 464 L 383.5 160.5 L 256.9 160.5 C 247.5 160.479 239.089 156.845 233.125 150.994 Z M 154.454 353.446 C 158.416 357.44 160.459 362.742 160.459 367.956 C 160.459 373.17 158.417 378.469 154.455 382.462 C 150.464 386.511 145.187 388.5 140 388.5 C 134.812 388.5 129.505 386.473 125.506 382.51 L 77.506 334.51 C 73.544 330.516 71.501 325.214 71.501 320 C 71.501 314.786 73.544 309.485 77.506 305.492 L 125.506 257.492 C 129.5 253.53 134.794 251.487 140.001 251.487 C 145.207 251.487 150.516 253.514 154.494 257.492 C 158.471 261.471 160.498 266.788 160.498 272.002 C 160.499 277.215 158.456 282.517 154.494 286.51 L 121.007 320 Z M 119.593 320 L 153.786 285.802 C 157.636 281.985 159.498 277.038 159.498 272.002 C 159.498 266.966 157.619 262.033 153.786 258.2 C 149.954 254.366 145.029 252.487 140.001 252.487 C 134.973 252.487 130.032 254.35 126.214 258.2 L 78.214 306.2 C 74.364 310.017 72.501 314.965 72.501 320 C 72.501 325.036 74.364 329.984 78.214 333.802 L 126.214 381.802 C 130.035 385.651 134.988 387.5 140 387.5 C 145.013 387.5 149.934 385.691 153.742 381.761 C 157.592 377.943 159.459 372.991 159.459 367.956 C 159.459 362.92 157.596 357.972 153.746 354.154 Z M 306.454 305.446 C 310.416 309.44 312.459 314.742 312.459 319.956 C 312.459 325.17 310.416 330.471 306.454 334.464 L 258.454 382.463 C 254.463 386.51 249.187 388.5 244 388.5 C 238.812 388.5 233.505 386.473 229.506 382.51 C 225.544 378.516 223.501 373.214 223.501 368 C 223.501 362.786 225.544 357.485 229.506 353.492 L 262.993 320 L 229.486 286.514 C 225.524 282.52 223.481 277.218 223.481 272.004 C 223.481 266.79 225.508 261.474 229.486 257.496 C 233.465 253.519 238.774 251.492 243.981 251.492 C 249.187 251.492 254.481 253.534 258.473 257.496 Z M 257.767 258.204 C 253.949 254.354 249.009 252.492 243.981 252.492 C 238.953 252.492 234.027 254.371 230.194 258.204 C 226.36 262.036 224.481 266.969 224.481 272.004 C 224.481 277.04 226.344 281.988 230.194 285.806 L 264.407 320 L 230.214 354.2 C 226.364 358.017 224.501 362.965 224.501 368 C 224.501 373.036 226.364 377.984 230.213 381.802 C 234.035 385.651 238.988 387.5 244 387.5 C 249.013 387.5 253.934 385.691 257.742 381.761 L 305.746 333.756 C 309.596 329.939 311.459 324.991 311.459 319.956 C 311.459 314.92 309.596 309.972 305.746 306.154 Z M 255.5 128.5 L 255.5 -1.207 L 385.207 128.5 Z M 256.5 1.207 L 256.5 127.5 L 382.793 127.5 Z" style="fill: none;"/>
</svg>